<svg width="24" height="24" viewBox="0 0 533.5 544.3" xmlns="http://www.w3.org/2000/svg" aria-label="Google logo">
  <path fill="#4285F4" d="M533.5 278.4c0-18.5-1.5-37-4.7-55.3H272v104.8h146.9c-6.3 33.8-25.3 62.3-53.9 81.4v67h87c50.8-46.8 82.5-116.1 82.5-197.9z"/>
  <path fill="#34A853" d="M272 544.3c74.3 0 136.9-24.6 182.5-66.8l-87-67c-24.2 16.5-55.3 25.9-95.5 25.9-73.5 0-136-49.6-158.4-116.1H24.7v72.9c46.8 92.8 143.1 151.1 247.3 151.1z"/>
  <path fill="#FBBC04" d="M113.6 320.3c-11.8-35.1-11.8-73.1 0-108.2V139.2H24.7c-39.2 78-39.2 171 0 249l88.9-67.9z"/>
  <path fill="#EA4335" d="M272 107.9c42.4-.6 83.3 15.3 114.7 44.3l85.8-85.8C406.3 24.9 339.8-.6 272 0 167.8 0 71.5 58.3 24.7 151.1l88.9 67.9C136 157.4 198.5 107.9 272 107.9z"/>
</svg>
