<svg width="24" height="24" viewBox="0 0 32 32" xmlns="http://www.w3.org/2000/svg" aria-label="WhatsApp logo">
  <path fill="#25D366" d="M19.11 17.21c-.28-.14-1.67-.82-1.93-.91-.26-.1-.45-.14-.64.14-.19.28-.73.91-.89 1.1-.17.19-.33.21-.61.07-.28-.14-1.17-.43-2.23-1.37-.83-.74-1.39-1.65-1.56-1.93-.16-.28-.02-.43.12-.57.12-.12.28-.31.42-.47.14-.16.19-.28.28-.47.09-.19.05-.35-.02-.49-.07-.14-.64-1.54-.88-2.11-.23-.55-.46-.47-.64-.48l-.54-.01c-.19 0-.49.07-.74.35-.26.28-.98.96-.98 2.34s1 2.71 1.14 2.9c.14.19 1.95 2.98 4.73 4.17.66.28 1.18.44 1.58.56.66.21 1.26.18 1.74.11.53-.08 1.67-.68 1.91-1.34.24-.66.24-1.22.17-1.34-.07-.12-.26-.19-.54-.33z"/>
  <path fill="#25D366" d="M16.02 3.2c-7.07 0-12.8 5.73-12.8 12.8 0 2.25.59 4.45 1.71 6.39L3.2 28.8l6.56-1.71c1.86 1.01 3.95 1.54 6.07 1.54h.01c7.06 0 12.79-5.73 12.79-12.8S23.09 3.2 16.02 3.2zm0 23.18h-.01c-1.91 0-3.78-.52-5.42-1.5l-.39-.23-3.9 1.02 1.04-3.8-.25-.39c-1.03-1.63-1.58-3.52-1.58-5.48 0-5.79 4.71-10.5 10.5-10.5 2.81 0 5.46 1.09 7.45 3.09a10.45 10.45 0 0 1 3.07 7.45c0 5.79-4.71 10.5-10.51 10.5z"/>
  <path fill="#FFFFFF" d="M16.02 5.5c-5.79 0-10.5 4.71-10.5 10.5 0 1.96.55 3.85 1.58 5.48l.25.39-1.04 3.8 3.9-1.02.39.23c1.64.98 3.51 1.5 5.42 1.5h.01c5.8 0 10.51-4.71 10.51-10.5 0-2.81-1.09-5.45-3.07-7.45a10.48 10.48 0 0 0-7.45-3.09zm3.09 11.71c-.28-.14-1.67-.82-1.93-.91-.26-.1-.45-.14-.64.14-.19.28-.73.91-.89 1.1-.17.19-.33.21-.61.07-.28-.14-1.17-.43-2.23-1.37-.83-.74-1.39-1.65-1.56-1.93-.16-.28-.02-.43.12-.57.12-.12.28-.31.42-.47.14-.16.19-.28.28-.47.09-.19.05-.35-.02-.49-.07-.14-.64-1.54-.88-2.11-.23-.55-.46-.47-.64-.48l-.54-.01c-.19 0-.49.07-.74.35-.26.28-.98.96-.98 2.34s1 2.71 1.14 2.9c.14.19 1.95 2.98 4.73 4.17.66.28 1.18.44 1.58.56.66.21 1.26.18 1.74.11.53-.08 1.67-.68 1.91-1.34.24-.66.24-1.22.17-1.34-.07-.12-.26-.19-.54-.33z"/>
</svg>
